<?xml version="1.0" encoding="utf-8"?>
<!-- Generator: Adobe Illustrator 24.0.1, SVG Export Plug-In . SVG Version: 6.00 Build 0)  -->
<svg version="1.1" id="Layer_1" xmlns="http://www.w3.org/2000/svg" xmlns:xlink="http://www.w3.org/1999/xlink" x="0px" y="0px"
	 viewBox="0 0 328.2 62.4" style="enable-background:new 0 0 328.2 62.4;" xml:space="preserve">
<style type="text/css">
	.st0{fill:#FFFFFF;}
	.st1{clip-path:url(#SVGID_2_);fill:url(#SVGID_3_);}
	.st2{clip-path:url(#SVGID_5_);fill:url(#SVGID_6_);}
	.st3{clip-path:url(#SVGID_8_);fill:url(#SVGID_9_);}
	.st4{clip-path:url(#SVGID_11_);fill:url(#SVGID_12_);}
	.st5{clip-path:url(#SVGID_14_);fill:url(#SVGID_15_);}
	.st6{clip-path:url(#SVGID_17_);fill:url(#SVGID_18_);}
	.st7{clip-path:url(#SVGID_20_);fill:url(#SVGID_21_);}
	.st8{clip-path:url(#SVGID_23_);fill:url(#SVGID_24_);}
	.st9{clip-path:url(#SVGID_26_);fill:url(#SVGID_27_);}
	.st10{clip-path:url(#SVGID_29_);fill:url(#SVGID_30_);}
	.st11{clip-path:url(#SVGID_32_);fill:url(#SVGID_33_);}
	.st12{filter:url(#Adobe_OpacityMaskFilter);}
	.st13{clip-path:url(#SVGID_36_);fill:#FFFFFF;}
	.st14{clip-path:url(#SVGID_36_);}
	.st15{mask:url(#SVGID_34_);fill-rule:evenodd;clip-rule:evenodd;fill:#FFFFFF;}
	.st16{fill:none;}
</style>
<g>
	<path class="st0" d="M241.8,12.9L241.8,12.9c-2.3,1.8-3.5,4.1-3.5,6.8v11c0,2.7,1.2,5,3.5,6.8c2.3,1.8,5.1,2.7,8.4,2.7h28.1v-7h-28
		c-2.3,0-3.4-0.8-3.4-2.5v-11c0-1.7,1.1-2.5,3.4-2.5h28v-7h-28.1C246.9,10.2,244.1,11.1,241.8,12.9"/>
	<path class="st0" d="M223.1,10.2L223.1,10.2h-24c-3,0-5.5,0.9-7.4,2.7c-1.9,1.8-2.9,4-2.9,6.5v20.7h8.5V19.5c0-1.5,0.6-2.3,1.8-2.3
		h23.9c1.2,0,1.8,0.8,1.8,2.3v4.2h-22.2v7h22.2v9.5h8.5V19.4c0-2.5-1-4.7-2.9-6.5C228.6,11.1,226.1,10.2,223.1,10.2z"/>
	<polygon class="st0" points="283.2,10.2 283.2,10.2 283.2,17.2 299.6,17.2 299.6,40.2 308.1,40.2 308.1,17.2 324.4,17.2 
		324.4,10.2 	"/>
	<polygon class="st0" points="101.1,40.2 101.1,40.2 139.7,40.2 139.7,33.2 109.6,33.2 109.6,28.7 137.8,28.7 137.8,21.7 
		109.6,21.7 109.6,17.2 139.8,17.2 139.8,10.2 101.1,10.2 	"/>
	<polygon class="st0" points="144,10.2 158.8,25 143.6,40.2 154.6,40.2 164.3,30.6 174.1,40.2 184.9,40.2 154.9,10.2 	"/>
	<polygon class="st0" points="3.8,18.6 13.3,27.7 42.7,4.8 	"/>
	<g>
		<defs>
			<path id="SVGID_1_" d="M147.1,47L147.1,47l-2.5,6.5h5L147.1,47z M144,55.3l-0.9,2.4h-2.9l4.8-12.6h4l4.9,12.6h-2.8l-0.9-2.4H144z
				"/>
		</defs>
		<clipPath id="SVGID_2_">
			<use xlink:href="#SVGID_1_"  style="overflow:visible;"/>
		</clipPath>
		
			<linearGradient id="SVGID_3_" gradientUnits="userSpaceOnUse" x1="-160.8782" y1="249.0905" x2="-159.8782" y2="249.0905" gradientTransform="matrix(0 -27.233 86.6653 0 -21440.4492 -4322.3003)">
			<stop  offset="0" style="stop-color:#05499C"/>
			<stop  offset="1" style="stop-color:#00DDFF"/>
		</linearGradient>
		<rect x="140.2" y="45.2" class="st1" width="13.7" height="12.6"/>
	</g>
	<g>
		<defs>
			<path id="SVGID_4_" d="M263,54.1L263,54.1L263,54.1L263,54.1z M263,54.1L263,54.1L263,54.1L263,54.1L263,54.1z M271.4,47.8
				L271.4,47.8c0.1,0.2,0.1,0.4,0.1,0.7h1.9v-0.1c0-0.7-0.1-1.3-0.4-1.7c-0.2-0.4-0.6-0.6-1-0.7c-1.1-0.3-2.3-0.4-3.8-0.4
				c-0.2,0-0.4,0-0.6,0c-0.2,0-0.4,0-0.6,0c-0.2,0-0.4,0-0.6,0c-0.2,0-0.4,0-0.6,0c-0.6,0-1.1,0.1-1.5,0.3c-0.4,0.1-0.7,0.3-0.9,0.6
				l0,0c-0.2,0.2-0.4,0.5-0.5,0.9h0c-0.1,0.4-0.2,0.8-0.2,1.3c0,0.8,0.1,1.4,0.3,1.9c0.2,0.4,0.4,0.7,0.8,0.8l0,0
				c0.4,0.2,0.9,0.3,1.5,0.4c0.6,0.1,1.2,0.2,2,0.2l0,0l0.1,0l0.1,0v0l0.1,0l0.1,0h0c0.1,0,0.2,0,0.2,0c0.1,0,0.1,0,0.2,0h0.4l0,0
				c0.4,0,0.8,0,1.1,0.1c0.3,0,0.6,0.1,0.9,0.2c0.3,0.1,0.6,0.3,0.8,0.7c0.1,0.3,0.2,0.7,0.2,1.2c0,0.4-0.1,0.8-0.2,1.1
				c-0.1,0.3-0.3,0.6-0.6,0.7c-0.2,0.1-0.5,0.2-0.9,0.3c-0.3,0.1-0.7,0.1-1.2,0.1h-1c-0.1,0-0.3,0-0.5,0c-0.2,0-0.4,0-0.5,0
				c-0.4,0-0.8-0.1-1.1-0.2c-0.3-0.1-0.6-0.4-0.7-0.7c-0.1-0.2-0.2-0.5-0.2-0.8c0-0.2,0-0.3-0.1-0.5l-1.9,0l0,0l0,0l0,0v0.1
				c0,0.8,0.1,1.5,0.4,1.9c0.2,0.4,0.5,0.7,1,0.8c0.5,0.2,1.1,0.3,1.7,0.3c0.7,0.1,1.4,0.1,2.2,0.1h0.7c0.1,0,0.2,0,0.3,0
				c0.1,0,0.2,0,0.3,0v0c0.1,0,0.2,0,0.3,0c0.1,0,0.2,0,0.3,0l0.3,0v0l0.3,0v0c0.7-0.1,1.2-0.2,1.6-0.4c0.4-0.2,0.6-0.4,0.8-0.7l0,0
				c0.2-0.3,0.3-0.7,0.4-1.1c0.1-0.4,0.1-0.9,0.1-1.4c0-0.8-0.1-1.4-0.4-1.8l0,0c-0.2-0.4-0.6-0.7-1-0.8c-0.5-0.2-1.1-0.3-1.7-0.4
				c-0.6-0.1-1.3-0.1-1.9-0.2l-0.3,0h0c-0.1,0-0.2,0-0.3,0l-0.3,0h0l-0.3,0v0c0,0-0.1,0-0.1,0h0l-0.1,0l-0.1,0l-0.1,0l0,0
				c-0.4,0-0.7-0.1-1-0.1c-0.3-0.1-0.6-0.2-0.7-0.3l0,0c-0.2-0.2-0.3-0.4-0.4-0.7c-0.1-0.3-0.1-0.6-0.1-0.9l0,0l0-0.1v0
				c0,0,0-0.1,0-0.1l0,0l0-0.1h0l0-0.1l0-0.1c0-0.1,0.1-0.2,0.1-0.3c0-0.1,0.1-0.2,0.1-0.3h0c0.1-0.1,0.1-0.2,0.2-0.3
				c0.1-0.1,0.2-0.2,0.3-0.2l0,0c0.1-0.1,0.2-0.1,0.3-0.1c0.1,0,0.2-0.1,0.4-0.1v0c0.1,0,0.2,0,0.4-0.1c0.1,0,0.2,0,0.4,0v0
				c0.1,0,0.1,0,0.2,0c0.1,0,0.2,0,0.2,0c0.1,0,0.2,0,0.2,0h0c0.1,0,0.1,0,0.2,0l0,0h0.8c0.4,0,0.8,0,1.2,0.1
				c0.3,0.1,0.6,0.2,0.8,0.3v0C271.1,47.2,271.3,47.5,271.4,47.8z M270.9,48.8c0-0.3,0-0.6-0.1-0.8v0c-0.1-0.2-0.1-0.3-0.3-0.4l0,0
				c-0.1-0.1-0.3-0.2-0.6-0.2c-0.3-0.1-0.6-0.1-1-0.1h-0.7c-0.1,0-0.1,0-0.2,0c-0.1,0-0.2,0-0.2,0c-0.1,0-0.2,0-0.2,0h0
				c-0.1,0-0.1,0-0.2,0h0c-0.1,0-0.2,0-0.3,0c-0.1,0-0.2,0-0.3,0h0c-0.1,0-0.2,0-0.3,0.1c-0.1,0-0.1,0.1-0.2,0.1
				c-0.1,0-0.1,0.1-0.1,0.1c0,0-0.1,0.1-0.1,0.1l0,0c0,0.1-0.1,0.1-0.1,0.2c0,0.1,0,0.1-0.1,0.2l0,0.1v0l0,0.1l0,0c0,0,0,0.1,0,0.1
				h0l0,0.1h0c0,0.3,0,0.5,0.1,0.7c0,0.2,0.1,0.3,0.2,0.3h0c0.1,0.1,0.3,0.2,0.5,0.2c0.2,0.1,0.5,0.1,0.9,0.1v0c0,0,0.1,0,0.1,0h0
				l0.1,0l0.1,0l0.1,0l0,0l0.3,0l0.3,0h0l0.3,0l0.3,0h0c0.7,0,1.4,0.1,2,0.2c0.6,0.1,1.2,0.2,1.8,0.4c0.6,0.2,1.1,0.6,1.4,1.1h0
				c0.3,0.5,0.4,1.3,0.4,2.2c0,0.6-0.1,1.1-0.2,1.5c-0.1,0.5-0.3,0.9-0.5,1.3l0,0c-0.2,0.4-0.6,0.7-1.1,1c-0.5,0.2-1.1,0.4-1.8,0.4
				l0,0l-0.3,0h0l-0.3,0h0c-0.1,0-0.2,0-0.3,0h0c-0.1,0-0.2,0-0.3,0h0c-0.1,0-0.2,0-0.3,0c-0.1,0-0.3,0-0.3,0h-0.7
				c-0.8,0-1.6,0-2.3-0.1c-0.7-0.1-1.3-0.2-1.9-0.4c-0.6-0.2-1.1-0.6-1.4-1.2c-0.3-0.6-0.4-1.3-0.4-2.2v-0.1c0,0,0-0.1,0-0.1l0,0
				l0,0v-0.1v-0.1v-0.4l0.4,0l2.6,0l0.4,0v0.4c0,0.3,0,0.5,0.1,0.8c0,0.2,0.1,0.4,0.2,0.6c0.1,0.1,0.2,0.2,0.3,0.3
				c0.2,0.1,0.5,0.1,0.8,0.1h0c0.2,0,0.3,0,0.5,0c0.1,0,0.3,0,0.5,0h1c0.4,0,0.8,0,1-0.1c0.3,0,0.5-0.1,0.6-0.2
				c0.1-0.1,0.2-0.2,0.3-0.4c0.1-0.2,0.1-0.5,0.1-0.8c0-0.4,0-0.6-0.1-0.8c-0.1-0.2-0.2-0.3-0.3-0.3c-0.2-0.1-0.5-0.1-0.8-0.2
				c-0.3,0-0.6-0.1-1-0.1v0h-0.4c-0.1,0-0.1,0-0.2,0c-0.1,0-0.2,0-0.2,0v0l-0.1,0h0c-0.1,0-0.1,0-0.1,0l0,0l-0.1,0l0,0l-0.1,0
				c-0.8,0-1.5-0.1-2.1-0.2c-0.6-0.1-1.2-0.3-1.6-0.5v0c-0.5-0.2-0.9-0.6-1.2-1.2c-0.2-0.6-0.3-1.3-0.3-2.1c0-0.6,0.1-1.1,0.2-1.5v0
				c0.1-0.5,0.4-0.8,0.7-1.2v0c0.3-0.3,0.7-0.6,1.2-0.8c0.5-0.2,1-0.3,1.7-0.3c0.2,0,0.4,0,0.6,0c0.2,0,0.4,0,0.6,0h0
				c0.2,0,0.4,0,0.6,0c0.2,0,0.4,0,0.6,0c1.5,0,2.8,0.1,3.9,0.4c0.6,0.2,1.1,0.5,1.5,1.1c0.3,0.5,0.5,1.2,0.5,2.1v0.5v0.4h-0.4h-2.6
				h-0.4V48.8z M248.8,54.1L248.8,54.1 M248.8,54.1L248.8,54.1L248.8,54.1L248.8,54.1z M248.8,54.1L248.8,54.1L248.8,54.1
				L248.8,54.1L248.8,54.1z M248.8,54.1L248.8,54.1L248.8,54.1C248.8,54.1,248.8,54.1,248.8,54.1 M257.3,47.8
				c0.1,0.2,0.1,0.4,0.1,0.7h1.9v-0.1c0-0.7-0.1-1.3-0.4-1.7c-0.2-0.4-0.6-0.6-1-0.7c-1.1-0.3-2.3-0.4-3.8-0.4c-0.2,0-0.4,0-0.6,0
				c-0.2,0-0.4,0-0.6,0c-0.2,0-0.4,0-0.6,0c-0.2,0-0.4,0-0.6,0c-0.6,0-1.1,0.1-1.5,0.3c-0.4,0.1-0.7,0.3-0.9,0.6l0,0
				c-0.2,0.2-0.4,0.5-0.5,0.9h0c-0.1,0.4-0.2,0.8-0.2,1.3c0,0.8,0.1,1.4,0.3,1.9c0.2,0.4,0.4,0.7,0.8,0.8l0,0
				c0.4,0.2,0.9,0.3,1.5,0.4c0.6,0.1,1.2,0.2,2,0.2l0,0l0.1,0l0.1,0v0l0.1,0l0.1,0h0c0.1,0,0.2,0,0.2,0c0.1,0,0.1,0,0.2,0h0.4l0,0
				c0.4,0,0.8,0,1.1,0.1c0.3,0,0.6,0.1,0.9,0.2c0.3,0.1,0.6,0.3,0.8,0.7c0.1,0.3,0.2,0.7,0.2,1.2c0,0.4-0.1,0.8-0.2,1.1
				c-0.1,0.3-0.3,0.6-0.6,0.7c-0.2,0.1-0.5,0.2-0.9,0.3c-0.3,0.1-0.7,0.1-1.2,0.1h-1c-0.1,0-0.3,0-0.5,0c-0.2,0-0.4,0-0.5,0
				c-0.4,0-0.8-0.1-1.1-0.2l0,0c-0.3-0.1-0.6-0.4-0.7-0.7c-0.1-0.2-0.2-0.5-0.2-0.8c0-0.2,0-0.3-0.1-0.5l-1.9,0l0,0l0,0l0,0h0
				c0,0,0,0,0,0v0.1c0,0.8,0.1,1.5,0.4,1.9c0.2,0.4,0.5,0.7,1,0.8c0.5,0.2,1.1,0.3,1.7,0.3c0.7,0.1,1.4,0.1,2.2,0.1h0.7
				c0.1,0,0.2,0,0.3,0c0.1,0,0.2,0,0.3,0v0c0.1,0,0.2,0,0.3,0c0.1,0,0.2,0,0.3,0l0.3,0v0l0.3,0v0c0.7-0.1,1.2-0.2,1.6-0.4
				c0.4-0.2,0.6-0.4,0.8-0.7l0,0c0.2-0.3,0.3-0.7,0.4-1.1c0.1-0.4,0.1-0.9,0.1-1.4c0-0.8-0.1-1.4-0.4-1.8l0,0
				c-0.2-0.4-0.6-0.7-1-0.8c-0.5-0.2-1.1-0.3-1.7-0.4c-0.6-0.1-1.3-0.1-1.9-0.2l-0.3,0h0c-0.1,0-0.2,0-0.3,0c-0.1,0-0.2,0-0.3,0h0
				l-0.3,0v0c0,0-0.1,0-0.1,0h0l-0.1,0l-0.1,0l-0.1,0l0,0c-0.4,0-0.7-0.1-1-0.1c-0.3-0.1-0.6-0.2-0.7-0.3l0,0
				c-0.2-0.2-0.3-0.4-0.4-0.7c-0.1-0.3-0.1-0.6-0.1-0.9c0,0,0-0.1,0-0.1c0,0,0-0.1,0-0.1l0-0.1h0l0-0.1l0-0.1c0-0.1,0.1-0.2,0.1-0.3
				v0c0-0.1,0.1-0.2,0.1-0.3c0.1-0.1,0.1-0.2,0.2-0.3c0.1-0.1,0.2-0.2,0.3-0.2l0,0c0.1-0.1,0.2-0.1,0.3-0.1c0.1,0,0.2-0.1,0.4-0.1v0
				c0.1,0,0.2,0,0.4-0.1c0.1,0,0.2,0,0.4,0v0c0.1,0,0.1,0,0.2,0c0.1,0,0.2,0,0.2,0c0.1,0,0.2,0,0.2,0h0c0.1,0,0.1,0,0.2,0l0,0h0.8
				c0.4,0,0.8,0,1.2,0.1c0.3,0.1,0.6,0.2,0.8,0.3v0C257,47.2,257.2,47.5,257.3,47.8z M256.7,48.8c0-0.3,0-0.6-0.1-0.8
				c-0.1-0.2-0.1-0.3-0.3-0.4l0,0c-0.1-0.1-0.3-0.2-0.6-0.2c-0.3-0.1-0.6-0.1-1-0.1H254c-0.1,0-0.1,0-0.2,0c-0.1,0-0.2,0-0.2,0
				c-0.1,0-0.2,0-0.2,0h0c-0.1,0-0.1,0-0.2,0h0c-0.1,0-0.2,0-0.3,0c-0.1,0-0.2,0-0.3,0h0c-0.1,0-0.2,0-0.3,0.1
				c-0.1,0-0.2,0.1-0.2,0.1c-0.1,0-0.1,0.1-0.1,0.1c0,0-0.1,0.1-0.1,0.1c0,0.1-0.1,0.1-0.1,0.2l0,0c0,0.1,0,0.1-0.1,0.2l0,0.1v0
				l0,0.1l0,0c0,0,0,0.1,0,0.1l0,0.1c0,0.3,0,0.5,0.1,0.7c0,0.2,0.1,0.3,0.2,0.3h0c0.1,0.1,0.3,0.2,0.5,0.2c0.2,0.1,0.5,0.1,0.9,0.1
				v0c0,0,0.1,0,0.1,0h0l0.1,0l0.1,0l0.1,0l0,0l0.3,0c0.1,0,0.2,0,0.3,0h0l0.3,0l0.3,0h0c0.7,0,1.4,0.1,2,0.2
				c0.6,0.1,1.2,0.2,1.8,0.4c0.6,0.2,1.1,0.6,1.4,1.1h0c0.3,0.5,0.4,1.3,0.4,2.2c0,0.6-0.1,1.1-0.2,1.5c-0.1,0.5-0.3,0.9-0.5,1.3
				l0,0c-0.2,0.4-0.6,0.7-1.1,1c-0.5,0.2-1.1,0.4-1.8,0.4l0,0l-0.3,0h0l-0.3,0h0c-0.1,0-0.2,0-0.3,0h0c-0.1,0-0.2,0-0.3,0h0
				c-0.1,0-0.2,0-0.3,0c-0.1,0-0.3,0-0.3,0h-0.7c-0.8,0-1.6,0-2.3-0.1c-0.7-0.1-1.3-0.2-1.9-0.4c-0.6-0.2-1.1-0.6-1.4-1.2
				c-0.3-0.6-0.4-1.3-0.4-2.2v-0.1c0,0,0-0.1,0-0.1h0l0-0.1v-0.1v-0.1v-0.4l0.4,0l2.6,0l0.4,0v0.4c0,0.3,0,0.5,0.1,0.8
				c0,0.2,0.1,0.4,0.2,0.6c0.1,0.1,0.2,0.2,0.3,0.3h0c0.2,0.1,0.5,0.1,0.8,0.1h0c0.2,0,0.3,0,0.5,0c0.1,0,0.3,0,0.5,0h1
				c0.4,0,0.8,0,1-0.1c0.3,0,0.5-0.1,0.6-0.2c0.1-0.1,0.2-0.2,0.3-0.4c0.1-0.2,0.1-0.5,0.1-0.8c0-0.4,0-0.6-0.1-0.8
				c-0.1-0.2-0.2-0.3-0.3-0.3c-0.2-0.1-0.5-0.1-0.8-0.2c-0.3,0-0.6-0.1-1-0.1v0h-0.4c-0.1,0-0.1,0-0.2,0c-0.1,0-0.2,0-0.2,0v0
				l-0.1,0h0c-0.1,0-0.1,0-0.1,0l0,0l-0.1,0l0,0l-0.1,0c-0.8,0-1.5-0.1-2.1-0.2c-0.6-0.1-1.2-0.3-1.6-0.5v0
				c-0.5-0.2-0.9-0.6-1.2-1.2c-0.2-0.6-0.3-1.3-0.3-2.1c0-0.6,0.1-1.1,0.2-1.5v0c0.1-0.5,0.4-0.8,0.7-1.2v0c0.3-0.3,0.7-0.6,1.2-0.8
				c0.5-0.2,1-0.3,1.7-0.3c0.2,0,0.4,0,0.6,0c0.2,0,0.4,0,0.6,0h0c0.2,0,0.4,0,0.6,0c0.2,0,0.4,0,0.6,0c1.5,0,2.8,0.1,3.9,0.4
				c0.6,0.2,1.1,0.5,1.5,1.1c0.3,0.5,0.5,1.2,0.5,2.1v0.5v0.4h-0.4h-2.6h-0.4V48.8z M236.9,53.4l2.5-6.5l0.7,0l2.5,6.5l0.2,0.5h-0.5
				h-5h-0.5L236.9,53.4z M239.7,48l-1.9,5.1h3.9L239.7,48z M235.5,57.4l0.8-2.2l0.1-0.2h0.3h6.2h0.2l0.1,0.2l0.8,2.2h2l-4.6-11.8
				h-3.6l-4.5,11.8H235.5z M236.9,55.7l-0.8,2.2l-0.1,0.2h-0.3h-2.9h-0.5l0.2-0.5l4.8-12.6l0.1-0.2h0.2h4h0.2L242,45l4.9,12.6
				l0.2,0.5h-0.5h-2.8h-0.2l-0.1-0.2l-0.8-2.2H236.9z M231.2,56h-6.3h-0.4v-0.4V45.5h-2.1v11.8h8.7V56z M225.2,55.2h6.3h0.4v0.4v2.1
				v0.4h-0.4h-9.5h-0.4v-0.4V45.2v-0.4h0.4h2.8h0.4v0.4V55.2z M216.6,52.9L216.6,52.9L216.6,52.9L216.6,52.9L216.6,52.9L216.6,52.9z
				 M216.6,52.8L216.6,52.8L216.6,52.8L216.6,52.8z M218.6,53.4l0-2H213v1.1h3.3h0.4v0.4v0.1c0,0,0,0,0,0h0l0,0.1v0.1v0.1
				c0,0.6-0.1,1.1-0.2,1.6c-0.2,0.5-0.4,0.8-0.7,0.9c-0.3,0.2-0.7,0.3-1.2,0.3c-0.5,0.1-1,0.1-1.7,0.1c-0.7,0-1.3,0-1.8-0.1
				c-0.5-0.1-0.9-0.2-1.2-0.4c-0.3-0.2-0.5-0.5-0.7-1v0c-0.1-0.4-0.2-1-0.2-1.7l0-1.6l0,0V51v-0.3l0,0c0-0.8,0.1-1.4,0.2-1.9
				c0.1-0.5,0.2-0.9,0.4-1.2l0,0c0.2-0.3,0.6-0.5,1.2-0.6c0.5-0.1,1.3-0.2,2.2-0.2l0.4,0h0l0.4,0h0l0.4,0h0c0.1,0,0.3,0,0.4,0
				c0.4,0,0.7,0.1,1,0.2c0.3,0.1,0.5,0.3,0.7,0.5c0.2,0.2,0.3,0.4,0.3,0.7c0,0.2,0.1,0.3,0.1,0.5l2,0c0-0.7-0.1-1.2-0.3-1.6
				c-0.2-0.5-0.5-0.8-0.8-1l0,0c-0.4-0.2-0.9-0.4-1.5-0.5c-0.6-0.1-1.4-0.2-2.3-0.2l-1.3,0l0,0h-0.6c-0.1,0-0.2,0-0.3,0
				c-0.1,0-0.2,0-0.3,0h0c-0.3,0-0.7,0.1-1,0.1c-0.3,0.1-0.7,0.1-1,0.2c-0.3,0.1-0.6,0.2-0.8,0.4c-0.2,0.2-0.5,0.4-0.7,0.6l0,0
				c-0.2,0.2-0.3,0.4-0.4,0.6v0c-0.1,0.2-0.2,0.4-0.2,0.7c-0.1,0.2-0.1,0.5-0.1,0.7c0,0.2-0.1,0.5-0.1,0.7v0c0,0.1,0,0.2,0,0.3v0
				c0,0.1,0,0.2,0,0.3v0.5v0.3v0.3v0.4V52l0,0c0,0.1,0,0.1,0,0.2c0,0.1,0,0.1,0,0.2v0.4c0,1,0.1,1.8,0.4,2.4c0.2,0.6,0.6,1,1,1.3v0
				c0.5,0.3,1.1,0.5,1.9,0.6c0.8,0.1,1.7,0.2,2.8,0.2c0.3,0,0.5,0,0.7,0c0.2,0,0.5,0,0.7,0c0.2,0,0.5,0,0.7,0c0.2,0,0.5,0,0.7,0v0
				c0.7-0.1,1.3-0.2,1.7-0.4c0.4-0.2,0.7-0.5,0.8-0.8c0.2-0.4,0.3-0.8,0.4-1.3C218.6,54.4,218.6,53.9,218.6,53.4L218.6,53.4z
				 M219.3,51v0.3h0l0,2l0,0c0,0.6,0,1.1-0.1,1.6c-0.1,0.5-0.2,1-0.4,1.4c-0.2,0.5-0.6,0.9-1.1,1.1c-0.5,0.3-1.2,0.4-1.9,0.5l0,0
				c-0.2,0-0.5,0-0.7,0c-0.2,0-0.5,0-0.7,0h0c-0.2,0-0.5,0-0.7,0c-0.3,0-0.5,0-0.7,0c-1.1,0-2.1-0.1-2.9-0.2
				c-0.8-0.2-1.5-0.4-2.1-0.7l0,0c-0.6-0.3-1-0.9-1.3-1.6c-0.3-0.7-0.4-1.6-0.4-2.7v-0.4c0-0.1,0-0.1,0-0.2c0-0.1,0-0.1,0-0.2v-0.4
				v-0.4v-0.3v-0.3V50c0-0.1,0-0.2,0-0.3v0c0-0.1,0-0.2,0-0.3h0c0-0.3,0-0.5,0.1-0.8c0-0.3,0.1-0.5,0.1-0.8c0.1-0.3,0.2-0.6,0.3-0.8
				l0,0c0.1-0.3,0.3-0.5,0.5-0.7h0c0.2-0.3,0.5-0.6,0.8-0.8c0.3-0.2,0.6-0.4,1-0.5c0.4-0.1,0.7-0.2,1.1-0.2c0.4-0.1,0.7-0.1,1.1-0.1
				v0c0.1,0,0.2,0,0.3,0c0.1,0,0.2,0,0.3,0h0.6v0l1.3,0h0c0.9,0,1.7,0.1,2.4,0.2c0.7,0.1,1.3,0.3,1.7,0.5v0c0.5,0.3,0.9,0.7,1.1,1.3
				c0.2,0.6,0.4,1.3,0.4,2.2l0,0.4l-0.4,0l-2.8,0l-0.4,0v-0.4c0-0.2,0-0.5-0.1-0.7c0-0.2-0.1-0.3-0.2-0.4c-0.1-0.1-0.2-0.2-0.4-0.3
				c-0.2-0.1-0.4-0.1-0.7-0.1h0c-0.1,0-0.3,0-0.4,0l-0.4,0l-0.4,0l-0.4,0c-0.9,0-1.5,0.1-2,0.2c-0.4,0.1-0.7,0.2-0.8,0.4l0,0
				c-0.1,0.2-0.2,0.5-0.3,0.9c-0.1,0.5-0.1,1.1-0.1,1.8h0V51v0.3h0l0,1.6v0c0,0.6,0.1,1.1,0.2,1.5h0c0.1,0.3,0.2,0.5,0.4,0.6
				c0.2,0.1,0.5,0.2,0.9,0.3c0.4,0.1,1,0.1,1.7,0.1c0.6,0,1.2,0,1.6-0.1c0.4-0.1,0.7-0.1,0.9-0.3c0.2-0.1,0.3-0.3,0.4-0.6
				c0.1-0.3,0.2-0.8,0.2-1.3h-3.3h-0.4v-0.4V51v-0.4h0.4h6.3h0.4V51z M186.6,52.1v-0.6v0v-0.5c0-0.1,0-0.2,0-0.2v0
				c0-0.1,0-0.1,0-0.2v-0.1v-0.1c0-0.7,0-1.2,0.1-1.7c0.1-0.5,0.2-0.9,0.4-1.1c0.2-0.3,0.6-0.5,1.3-0.7c0.6-0.1,1.3-0.2,2.3-0.2
				c0.7,0,1.3,0.1,1.7,0.2c0.5,0.1,0.9,0.3,1.1,0.6c0.2,0.3,0.3,0.6,0.4,1.1c0.1,0.4,0.1,0.9,0.1,1.5v1.5c0,0.2,0,0.5,0,0.8
				c0,0.3,0,0.5,0,0.8h0c0,0.6-0.1,1.1-0.3,1.5c-0.2,0.4-0.4,0.8-0.8,0.9h0c-0.3,0.2-0.7,0.3-1.2,0.4c-0.5,0.1-1,0.1-1.7,0.1
				c-0.5,0-0.9,0-1.3-0.1h0c-0.4-0.1-0.7-0.1-1-0.2c-0.3-0.1-0.6-0.4-0.8-0.8c-0.2-0.3-0.3-0.7-0.3-1.3l0,0c0-0.1,0-0.2,0-0.3
				c0-0.1,0-0.2,0-0.3c0-0.1,0-0.2,0-0.3l0-0.3V52.1z M187.4,51.5L187.4,51.5v0.6v0.6l0,0.3v0c0,0.1,0,0.2,0,0.3c0,0.1,0,0.2,0,0.3
				c0,0.1,0,0.2,0,0.3h0c0,0.4,0.1,0.8,0.2,1c0.1,0.2,0.2,0.3,0.4,0.4c0.2,0.1,0.5,0.2,0.8,0.2v0c0.3,0,0.7,0.1,1.2,0.1
				c0.6,0,1.1,0,1.6-0.1c0.4-0.1,0.7-0.2,1-0.3l0,0c0.2-0.1,0.3-0.3,0.5-0.6c0.1-0.3,0.2-0.8,0.2-1.3v0c0-0.3,0-0.5,0-0.8
				c0-0.2,0-0.5,0-0.8v-1.5c0-0.6,0-1-0.1-1.4c-0.1-0.3-0.2-0.6-0.3-0.8c-0.1-0.1-0.3-0.3-0.7-0.3c-0.4-0.1-0.9-0.1-1.6-0.1
				c-0.9,0-1.6,0.1-2.1,0.2c-0.4,0.1-0.7,0.2-0.8,0.4c-0.1,0.2-0.2,0.5-0.3,0.9c-0.1,0.4-0.1,0.9-0.1,1.6v0.1v0.1l0,0
				c0,0.1,0,0.1,0,0.2c0,0.1,0,0.1,0,0.2V51.5z M184.8,48.9c-0.1,0.8-0.2,1.7-0.2,2.7v0v0.3v0.3l0,0c0,0,0,0.1,0,0.1
				c0,0,0,0.1,0,0.1v0.3c0,1,0.1,1.8,0.3,2.4c0.2,0.6,0.5,1,0.9,1.3c0.4,0.3,1,0.5,1.7,0.7c0.7,0.2,1.6,0.2,2.7,0.2
				c1.5,0,2.7-0.1,3.6-0.4c0.8-0.2,1.4-0.5,1.6-0.9c0.3-0.4,0.5-1.1,0.6-1.9c0.1-0.8,0.2-1.8,0.2-2.9v-0.8l0-0.4l0-0.4v0
				c0-0.1,0-0.3,0-0.4c0-0.1,0-0.3,0-0.4l0,0c0-0.8-0.2-1.5-0.5-2c-0.3-0.5-0.7-0.8-1.3-1c-0.6-0.2-1.3-0.3-2-0.4
				c-0.7-0.1-1.5-0.1-2.3-0.1c-1.3,0-2.4,0.1-3.2,0.4c-0.7,0.3-1.2,0.6-1.4,1.1l0,0C185.1,47.5,184.9,48.1,184.8,48.9z M183.8,51.6
				c0-1.1,0.1-2,0.2-2.8c0.1-0.8,0.4-1.6,0.6-2.2v0c0.3-0.7,0.9-1.1,1.8-1.5c0.9-0.3,2-0.4,3.4-0.4c0.8,0,1.6,0,2.4,0.1
				c0.8,0.1,1.5,0.2,2.1,0.4c0.7,0.2,1.3,0.6,1.7,1.3c0.4,0.6,0.6,1.4,0.7,2.3c0,0.1,0,0.3,0,0.4c0,0.1,0,0.3,0,0.4v0l0,0.4v0l0,0.4
				v0.8c0,1.2-0.1,2.2-0.2,3.1c-0.2,0.9-0.4,1.6-0.7,2.1c-0.3,0.6-1,1-2,1.3c-0.9,0.3-2.2,0.4-3.8,0.4c-1.1,0-2.1-0.1-2.9-0.2
				c-0.8-0.2-1.5-0.4-2-0.8c-0.5-0.4-0.9-0.9-1.1-1.7c-0.2-0.7-0.4-1.6-0.4-2.6v-0.3c0-0.1,0-0.1,0-0.2v0c0,0,0-0.1,0-0.2v-0.3V51.6
				L183.8,51.6z M175.4,57.4h2.1V47.3v-0.4h0.4h3.9v-1.4h-10.4v1.4h3.8h0.4v0.4V57.4z M177.8,58.1H175h-0.4v-0.4V47.6h-3.8h-0.4
				v-0.4v-2.1v-0.4h0.4H182h0.4v0.4v2.1v0.4H182h-3.9v10.1v0.4H177.8z M144.3,53.4l2.5-6.5l0.7,0l2.5,6.5l0.2,0.5h-0.5h-5h-0.5
				L144.3,53.4z M147.1,48l-1.9,5.1h3.9L147.1,48z M142.8,57.4l0.8-2.2l0.1-0.2h0.3h6.2h0.2l0.1,0.2l0.8,2.2h2l-4.6-11.8h-3.6
				l-4.5,11.8H142.8z M144.2,55.7l-0.8,2.2l-0.1,0.2h-0.3h-2.9h-0.5l0.2-0.5l4.8-12.6l0.1-0.2h0.2h4h0.2l0.1,0.2l4.9,12.6l0.2,0.5
				h-0.5h-2.8h-0.2l-0.1-0.2l-0.8-2.2H144.2z M168.7,45.2v8.4c0,1.4-0.3,2.5-0.9,3.3c-0.3,0.4-0.8,0.7-1.4,0.9
				c-0.6,0.2-1.4,0.3-2.2,0.3l0,0l-0.2,0h0c-0.1,0-0.1,0-0.2,0h0l-0.2,0h0l-0.2,0v0c-0.1,0-0.1,0-0.2,0v0c-0.1,0-0.2,0-0.2,0h-0.4
				c-1,0-1.8-0.1-2.6-0.2c-0.8-0.1-1.4-0.3-2-0.5c-0.6-0.2-1.1-0.7-1.4-1.4h0c-0.3-0.6-0.4-1.5-0.4-2.5v-8.5v-0.4h0.4h2.8h0.4v0.4
				v8.5c0,0.4,0,0.8,0.1,1c0.1,0.2,0.2,0.4,0.3,0.4l0,0c0.2,0.1,0.4,0.2,0.7,0.2c0.3,0.1,0.7,0.1,1.2,0.1h0.9l0,0
				c0.4,0,0.8,0,1.1-0.1c0.3,0,0.6-0.1,0.8-0.2l0,0c0.1-0.1,0.3-0.2,0.3-0.4c0.1-0.2,0.1-0.5,0.1-0.9v-0.3v-8.4v-0.4h0.4h2.7h0.4
				V45.2z"/>
		</defs>
		<clipPath id="SVGID_5_">
			<use xlink:href="#SVGID_4_"  style="overflow:visible;"/>
		</clipPath>
		
			<linearGradient id="SVGID_6_" gradientUnits="userSpaceOnUse" x1="-160.8782" y1="249.635" x2="-159.8782" y2="249.635" gradientTransform="matrix(0 -27.233 181.9888 0 -45223.6523 -4322.3003)">
			<stop  offset="0" style="stop-color:#05499C"/>
			<stop  offset="1" style="stop-color:#00DDFF"/>
		</linearGradient>
		<rect x="139.7" y="44.7" class="st2" width="134.8" height="13.5"/>
	</g>
	<g>
		<defs>
			<polygon id="SVGID_7_" points="177.8,57.7 175,57.7 175,47.3 170.9,47.3 170.9,45.2 182,45.2 182,47.3 177.8,47.3 			"/>
		</defs>
		<clipPath id="SVGID_8_">
			<use xlink:href="#SVGID_7_"  style="overflow:visible;"/>
		</clipPath>
		
			<linearGradient id="SVGID_9_" gradientUnits="userSpaceOnUse" x1="-160.8782" y1="249.2594" x2="-159.8782" y2="249.2594" gradientTransform="matrix(0 -27.233 25.3559 0 -6143.7515 -4322.3003)">
			<stop  offset="0" style="stop-color:#05499C"/>
			<stop  offset="1" style="stop-color:#00DDFF"/>
		</linearGradient>
		<rect x="170.9" y="45.2" class="st3" width="11.2" height="12.6"/>
	</g>
	<g>
		<defs>
			<path id="SVGID_10_" d="M187,51.5L187,51.5c0,0.2,0,0.4,0,0.6c0,0.2,0,0.4,0,0.6c0,0.2,0,0.4,0,0.6c0,0.2,0,0.4,0,0.6
				c0.1,0.9,0.4,1.5,0.9,1.7c0.5,0.2,1.2,0.3,2.2,0.3c1.3,0,2.2-0.1,2.7-0.4c0.5-0.3,0.8-1,0.9-2.2c0-0.5,0-1,0-1.5c0-0.5,0-1,0-1.5
				c0-1.2-0.2-2-0.5-2.4c-0.3-0.4-1.2-0.6-2.5-0.6c-1.9,0-2.9,0.2-3.2,0.7c-0.3,0.5-0.5,1.3-0.5,2.7c0,0,0,0.1,0,0.1
				c0,0,0,0.1,0,0.1c0,0.1,0,0.3,0,0.4C187,51.2,187,51.4,187,51.5L187,51.5z M184.2,51.6c0-2.1,0.3-3.7,0.8-4.8
				c0.5-1.1,2.2-1.7,4.9-1.7c1.7,0,3.1,0.2,4.4,0.6c1.3,0.4,2,1.5,2.1,3.3c0,0.3,0,0.6,0.1,0.8c0,0.3,0,0.6,0,0.8v0.8
				c0,2.3-0.3,4-0.9,5c-0.6,1-2.4,1.5-5.5,1.5c-2.2,0-3.7-0.3-4.6-1c-0.9-0.6-1.4-2-1.4-4c0-0.1,0-0.2,0-0.3c0-0.1,0-0.2,0-0.3
				c0-0.1,0-0.2,0-0.3C184.2,51.8,184.2,51.7,184.2,51.6L184.2,51.6z"/>
		</defs>
		<clipPath id="SVGID_11_">
			<use xlink:href="#SVGID_10_"  style="overflow:visible;"/>
		</clipPath>
		
			<linearGradient id="SVGID_12_" gradientUnits="userSpaceOnUse" x1="-160.8782" y1="249.8008" x2="-159.8782" y2="249.8008" gradientTransform="matrix(0 -27.233 25.9427 0 -6290.1509 -4322.3003)">
			<stop  offset="0" style="stop-color:#05499C"/>
			<stop  offset="1" style="stop-color:#00DDFF"/>
		</linearGradient>
		<rect x="184.2" y="45.1" class="st4" width="12.3" height="12.8"/>
	</g>
	<g>
		<defs>
			<path id="SVGID_13_" d="M218.9,51v0.3l0,2c0,1.1-0.2,2.1-0.5,2.9c-0.4,0.8-1.3,1.3-2.8,1.4c-0.5,0-0.9,0.1-1.4,0.1
				c-0.5,0-0.9,0-1.4,0c-2.2,0-3.8-0.3-4.8-0.9c-1-0.6-1.6-1.9-1.6-4c0-0.2,0-0.3,0-0.4c0-0.1,0-0.3,0-0.4c0-0.1,0-0.3,0-0.4
				c0-0.1,0-0.3,0-0.4c0-0.1,0-0.2,0-0.3c0-0.1,0-0.2,0-0.3c0-0.2,0-0.4,0-0.5c0-0.2,0-0.4,0-0.6c0-0.5,0.1-1,0.2-1.5
				c0.1-0.5,0.4-1,0.7-1.4c0.4-0.5,1-0.9,1.6-1.1c0.7-0.2,1.4-0.3,2.1-0.3c0.2,0,0.4,0,0.6,0c0.2,0,0.4,0,0.6,0l1.3,0
				c1.8,0,3.1,0.2,4,0.7c0.9,0.4,1.3,1.5,1.3,3.3l-2.8,0c0-0.6-0.1-1-0.4-1.3c-0.3-0.3-0.7-0.5-1.4-0.5c-0.3,0-0.5,0-0.8,0
				c-0.3,0-0.5,0-0.8,0c-1.8,0-2.8,0.2-3.1,0.7c-0.3,0.4-0.5,1.4-0.5,2.9c0,0.1,0,0.2,0,0.3c0,0.1,0,0.2,0,0.3l0,1.6
				c0,1.3,0.3,2.1,0.7,2.4c0.5,0.3,1.4,0.5,2.8,0.5c1.3,0,2.2-0.1,2.7-0.4c0.5-0.3,0.7-1,0.7-2.2c0,0,0-0.1,0-0.1c0,0,0-0.1,0-0.1
				c0,0,0-0.1,0-0.1c0,0,0-0.1,0-0.1h-3.6V51H218.9z"/>
		</defs>
		<clipPath id="SVGID_14_">
			<use xlink:href="#SVGID_13_"  style="overflow:visible;"/>
		</clipPath>
		
			<linearGradient id="SVGID_15_" gradientUnits="userSpaceOnUse" x1="-160.8782" y1="249.9256" x2="-159.8782" y2="249.9256" gradientTransform="matrix(0 -27.233 70.8452 0 -17493.3223 -4322.3003)">
			<stop  offset="0" style="stop-color:#05499C"/>
			<stop  offset="1" style="stop-color:#00DDFF"/>
		</linearGradient>
		<rect x="206.4" y="45" class="st5" width="12.5" height="12.8"/>
	</g>
	<g>
		<defs>
			<polygon id="SVGID_16_" points="224.9,55.6 231.5,55.6 231.5,57.7 222.1,57.7 222.1,45.2 224.9,45.2 			"/>
		</defs>
		<clipPath id="SVGID_17_">
			<use xlink:href="#SVGID_16_"  style="overflow:visible;"/>
		</clipPath>
		
			<linearGradient id="SVGID_18_" gradientUnits="userSpaceOnUse" x1="-160.8782" y1="249.9612" x2="-159.8782" y2="249.9612" gradientTransform="matrix(0 -27.233 95.9856 0 -23765.8691 -4322.3003)">
			<stop  offset="0" style="stop-color:#05499C"/>
			<stop  offset="1" style="stop-color:#00DDFF"/>
		</linearGradient>
		<rect x="222.1" y="45.2" class="st6" width="9.5" height="12.6"/>
	</g>
	<g>
		<defs>
			<path id="SVGID_19_" d="M239.7,47L239.7,47l-2.5,6.5h5L239.7,47z M236.6,55.3l-0.9,2.4h-2.9l4.8-12.6h4l4.9,12.6h-2.8l-0.9-2.4
				H236.6z"/>
		</defs>
		<clipPath id="SVGID_20_">
			<use xlink:href="#SVGID_19_"  style="overflow:visible;"/>
		</clipPath>
		
			<linearGradient id="SVGID_21_" gradientUnits="userSpaceOnUse" x1="-160.8782" y1="249.9536" x2="-159.8782" y2="249.9536" gradientTransform="matrix(0 -27.233 126.0091 0 -31256.7148 -4322.3003)">
			<stop  offset="0" style="stop-color:#05499C"/>
			<stop  offset="1" style="stop-color:#00DDFF"/>
		</linearGradient>
		<rect x="232.9" y="45.2" class="st7" width="13.7" height="12.6"/>
	</g>
	<g>
		<defs>
			<path id="SVGID_22_" d="M257.1,48.8c0-0.7-0.2-1.2-0.5-1.4c-0.3-0.2-0.9-0.4-1.8-0.4H254c-0.1,0-0.3,0-0.4,0c-0.2,0-0.3,0-0.4,0
				c-0.2,0-0.5,0-0.7,0.1c-0.2,0-0.4,0.1-0.6,0.2c-0.2,0.1-0.3,0.2-0.4,0.4c-0.1,0.2-0.2,0.3-0.2,0.5c0,0.1,0,0.1,0,0.2
				c0,0.1,0,0.1,0,0.2c0,0.6,0.1,1.1,0.4,1.3c0.3,0.2,0.8,0.4,1.5,0.4c0.1,0,0.1,0,0.2,0c0.1,0,0.1,0,0.2,0c0.2,0,0.4,0,0.5,0
				c0.2,0,0.4,0,0.5,0c1.4,0,2.6,0.2,3.7,0.5c1.1,0.3,1.6,1.3,1.6,3c0,1.1-0.2,1.9-0.6,2.6c-0.4,0.7-1.3,1.1-2.7,1.2
				c-0.2,0-0.5,0-0.7,0c-0.2,0-0.4,0-0.7,0c-0.2,0-0.5,0-0.7,0c-0.2,0-0.4,0-0.7,0c-1.7,0-3-0.2-4-0.5c-1-0.3-1.6-1.4-1.6-3.1
				c0,0,0-0.1,0-0.1c0,0,0-0.1,0-0.1c0,0,0-0.1,0-0.1c0,0,0-0.1,0-0.1l2.6,0c0,0.6,0.1,1.1,0.3,1.5c0.2,0.4,0.7,0.6,1.5,0.6
				c0.3,0,0.7,0,1,0s0.7,0,1,0c0.8,0,1.5-0.1,1.9-0.3c0.4-0.2,0.6-0.7,0.6-1.5c0-0.8-0.2-1.3-0.7-1.5c-0.5-0.2-1.1-0.2-1.9-0.2
				c-0.1,0-0.3,0-0.4,0c-0.1,0-0.3,0-0.5,0c-0.1,0-0.1,0-0.2,0c-0.1,0-0.2,0-0.2,0c-1.5-0.1-2.7-0.3-3.6-0.7c-0.9-0.4-1.3-1.4-1.3-3
				c0-1.1,0.3-1.9,0.8-2.4c0.5-0.6,1.4-0.9,2.6-1c0.4,0,0.7,0,1.1-0.1c0.4,0,0.8,0,1.1,0c1.5,0,2.8,0.1,3.9,0.4
				c1.1,0.3,1.6,1.2,1.6,2.8v0.5H257.1z"/>
		</defs>
		<clipPath id="SVGID_23_">
			<use xlink:href="#SVGID_22_"  style="overflow:visible;"/>
		</clipPath>
		
			<linearGradient id="SVGID_24_" gradientUnits="userSpaceOnUse" x1="-160.8782" y1="249.9687" x2="-159.8782" y2="249.9687" gradientTransform="matrix(0 -27.233 152.9484 0 -37978.082 -4322.3003)">
			<stop  offset="0" style="stop-color:#05499C"/>
			<stop  offset="1" style="stop-color:#00DDFF"/>
		</linearGradient>
		<rect x="248.5" y="45.1" class="st8" width="11.6" height="12.7"/>
	</g>
	<g>
		<defs>
			<path id="SVGID_25_" d="M271.2,48.8c0-0.7-0.2-1.2-0.5-1.4c-0.3-0.2-0.9-0.4-1.8-0.4h-0.8c-0.1,0-0.3,0-0.4,0c-0.2,0-0.3,0-0.4,0
				c-0.2,0-0.5,0-0.7,0.1c-0.2,0-0.4,0.1-0.6,0.2c-0.2,0.1-0.3,0.2-0.4,0.4c-0.1,0.2-0.2,0.3-0.2,0.5c0,0.1,0,0.1,0,0.2
				c0,0.1,0,0.1,0,0.2c0,0.6,0.1,1.1,0.4,1.3c0.3,0.2,0.8,0.4,1.5,0.4c0.1,0,0.1,0,0.2,0c0.1,0,0.1,0,0.2,0c0.2,0,0.4,0,0.5,0
				c0.2,0,0.4,0,0.5,0c1.4,0,2.6,0.2,3.7,0.5s1.6,1.3,1.6,3c0,1.1-0.2,1.9-0.6,2.6c-0.4,0.7-1.3,1.1-2.7,1.2c-0.2,0-0.5,0-0.7,0
				c-0.2,0-0.4,0-0.7,0c-0.2,0-0.5,0-0.7,0c-0.2,0-0.4,0-0.7,0c-1.7,0-3-0.2-4-0.5c-1-0.3-1.6-1.4-1.6-3.1c0,0,0-0.1,0-0.1
				c0,0,0-0.1,0-0.1c0,0,0-0.1,0-0.1c0,0,0-0.1,0-0.1l2.6,0c0,0.6,0.1,1.1,0.3,1.5c0.2,0.4,0.7,0.6,1.5,0.6c0.3,0,0.7,0,1,0
				c0.3,0,0.7,0,1,0c0.8,0,1.5-0.1,1.9-0.3c0.4-0.2,0.6-0.7,0.6-1.5c0-0.8-0.2-1.3-0.7-1.5c-0.5-0.2-1.1-0.2-1.9-0.2
				c-0.1,0-0.3,0-0.4,0c-0.1,0-0.3,0-0.5,0c-0.1,0-0.1,0-0.2,0c-0.1,0-0.2,0-0.2,0c-1.5-0.1-2.7-0.3-3.6-0.7c-0.9-0.4-1.3-1.4-1.3-3
				c0-1.1,0.3-1.9,0.8-2.4c0.5-0.6,1.4-0.9,2.6-1c0.4,0,0.7,0,1.1-0.1c0.4,0,0.8,0,1.1,0c1.5,0,2.8,0.1,3.9,0.4
				c1.1,0.3,1.6,1.2,1.6,2.8v0.5H271.2z"/>
		</defs>
		<clipPath id="SVGID_26_">
			<use xlink:href="#SVGID_25_"  style="overflow:visible;"/>
		</clipPath>
		
			<linearGradient id="SVGID_27_" gradientUnits="userSpaceOnUse" x1="-160.8782" y1="249.9736" x2="-159.8782" y2="249.9736" gradientTransform="matrix(0 -27.233 181.2688 0 -45044.0156 -4322.3003)">
			<stop  offset="0" style="stop-color:#05499C"/>
			<stop  offset="1" style="stop-color:#00DDFF"/>
		</linearGradient>
		<rect x="262.6" y="45.1" class="st9" width="11.6" height="12.7"/>
	</g>
	<g>
		<defs>
			<path id="SVGID_28_" d="M170.4,24.3l-2.1-2.1l-0.2-0.2l0.2-0.2L180.2,10l0.1-0.1h0.1h4.2h0.6l-0.4,0.4l-13.9,14l-0.2,0.2
				L170.4,24.3z M166.9,20.8l-2.1-2.1l-0.2-0.2l0.2-0.2l8.4-8.4l0.1-0.1h0.1h4.2h0.6l-0.4,0.4l-10.4,10.5l-0.2,0.2L166.9,20.8z"/>
		</defs>
		<clipPath id="SVGID_29_">
			<use xlink:href="#SVGID_28_"  style="overflow:visible;"/>
		</clipPath>
		
			<linearGradient id="SVGID_30_" gradientUnits="userSpaceOnUse" x1="-160.893" y1="249.6473" x2="-159.893" y2="249.6473" gradientTransform="matrix(0 -45.75 26.14 0 -6350.8979 -7325.6382)">
			<stop  offset="0" style="stop-color:#05499C"/>
			<stop  offset="1" style="stop-color:#00DDFF"/>
		</linearGradient>
		<rect x="164.7" y="9.9" class="st10" width="20.4" height="14.6"/>
	</g>
	<g>
		<defs>
			<polygon id="SVGID_31_" points="32.1,45.8 39.7,53.2 78,23.3 46.9,34.3 85.4,4.2 14.8,29.2 32.1,45.8 			"/>
		</defs>
		<clipPath id="SVGID_32_">
			<use xlink:href="#SVGID_31_"  style="overflow:visible;"/>
		</clipPath>
		
			<linearGradient id="SVGID_33_" gradientUnits="userSpaceOnUse" x1="-160.6678" y1="249.4447" x2="-160.1279" y2="249.4447" gradientTransform="matrix(18.6028 -69.4262 89.3217 23.9338 -19246.9434 -17077.0176)">
			<stop  offset="0" style="stop-color:#05499C"/>
			<stop  offset="1" style="stop-color:#00DDFF"/>
		</linearGradient>
		<polygon class="st11" points="80.7,70.8 97.6,7.5 19.6,-13.4 2.6,49.9 		"/>
	</g>
	<defs>
		<filter id="Adobe_OpacityMaskFilter" filterUnits="userSpaceOnUse" x="31.3" y="9.4" width="44.6" height="31.5">
			<feColorMatrix  type="matrix" values="1 0 0 0 0  0 1 0 0 0  0 0 1 0 0  0 0 0 1 0"/>
		</filter>
	</defs>
	<mask maskUnits="userSpaceOnUse" x="31.3" y="9.4" width="44.6" height="31.5" id="SVGID_34_">
		<g class="st12">
			<g>
				<defs>
					<rect id="SVGID_35_" x="6.3" y="9.4" width="69.6" height="58.9"/>
				</defs>
				<clipPath id="SVGID_36_">
					<use xlink:href="#SVGID_35_"  style="overflow:visible;"/>
				</clipPath>
				
					<rect x="8" y="16.8" transform="matrix(0.6148 -0.7887 0.7887 0.6148 -40.3923 41.9681)" class="st13" width="29.6" height="91.1"/>
				
					<rect x="44.6" y="-30.2" transform="matrix(0.6148 -0.7887 0.7887 0.6148 10.7939 52.7642)" class="st14" width="29.6" height="91.1"/>
				<g>
					<defs>
						
							<rect id="SVGID_37_" x="22.4" y="-6.7" transform="matrix(0.6148 -0.7887 0.7887 0.6148 -14.7992 47.3661)" width="37.5" height="91.1"/>
					</defs>
					<clipPath id="SVGID_38_" class="st14">
						<use xlink:href="#SVGID_37_"  style="overflow:visible;"/>
					</clipPath>
					<g transform="matrix(1 -5.960464e-08 0 1 -4.768372e-07 0)" style="clip-path:url(#SVGID_38_);">
						
							<image style="overflow:visible;" width="256" height="1" xlink:href="FF82749C.jpg"  transform="matrix(9.000243e-02 -0.1154 71.8411 56.0076 -6.3473 25.6077)">
						</image>
					</g>
				</g>
			</g>
		</g>
	</mask>
	<path class="st15" d="M42.5,35.5L75.9,9.4L31.3,25.2C34.3,29.1,38.1,32.5,42.5,35.5 M52.6,40.9l16-12.5l-23.8,8.4
		C47.1,38.4,49.8,39.8,52.6,40.9z"/>
</g>
<rect x="-161.9" y="-186.6" class="st16" width="650" height="437.6"/>
</svg>
