<?xml version="1.0" encoding="utf-8"?>
<!-- Generator: Adobe Illustrator 24.0.1, SVG Export Plug-In . SVG Version: 6.00 Build 0)  -->
<svg version="1.1" id="Layer_1" xmlns="http://www.w3.org/2000/svg" xmlns:xlink="http://www.w3.org/1999/xlink" x="0px" y="0px"
	 viewBox="0 0 1637 613" style="enable-background:new 0 0 1637 613;" xml:space="preserve">
<style type="text/css">
	.st0{fill:#FFFFFF;stroke:#191919;stroke-width:2;stroke-miterlimit:10;}
	.st1{fill:#191919;}
	.st2{fill:#0083C6;}
	.st3{fill:#FFFFFF;}
</style>
<path class="st0" d="M1550.58,560.47H86.42c-16.57,0-30-13.43-30-30V82.53c0-16.57,13.43-30,30-30h1464.15c16.57,0,30,13.43,30,30
	v447.94C1580.58,547.04,1567.14,560.47,1550.58,560.47z"/>
<g>
	<g>
		<g>
			<path class="st1" d="M416.45,330.63v27.91h-69.88v28.92h62.85v26.71h-62.85v29.12h72.09V471H315.24V330.63H416.45z"/>
		</g>
		<g>
			<path class="st1" d="M546.58,471l-13.05-30.32h-58.84L461.64,471H428.3l60.65-140.37h30.32L579.91,471H546.58z M504.21,372.4
				l-17.67,40.76h35.14L504.21,372.4z"/>
		</g>
		<g>
			<path class="st1" d="M660.64,443.29c15.39,0,27.98-6.09,37.75-18.27l20.08,20.68c-15.93,17.94-34.71,26.91-56.33,26.91
				c-21.62,0-39.43-6.83-53.42-20.48c-13.99-13.66-20.99-30.89-20.99-51.71c0-20.82,7.13-38.19,21.39-52.11
				c14.26-13.92,31.69-20.88,52.31-20.88c23.02,0,42.3,8.77,57.83,26.31l-19.48,22.09c-9.91-12.32-22.22-18.47-36.95-18.47
				c-11.78,0-21.86,3.85-30.22,11.55c-8.37,7.7-12.55,18.07-12.55,31.13c0,13.05,3.95,23.53,11.85,31.43
				C639.82,439.34,649.4,443.29,660.64,443.29z"/>
		</g>
		<g>
			<path class="st1" d="M830.33,330.63h31.33V471h-31.33v-55.22H774.5V471h-31.33V330.63h31.33v58.64h55.83V330.63z"/>
		</g>
		<g>
			<path class="st2" d="M992.58,330.63v27.51h-65.06v30.32h61.85v27.51h-61.85V471h-31.33V330.63H992.58z"/>
		</g>
		<g>
			<path class="st2" d="M1019.09,330.63h31.33V471h-31.33V330.63z"/>
		</g>
		<g>
			<path class="st2" d="M1198.82,377.22c0,22.49-8.9,37.02-26.71,43.58l35.54,50.2h-38.56l-31.13-44.78h-21.69V471h-31.33V330.63
				h53.22c21.82,0,37.38,3.68,46.69,11.04C1194.16,349.04,1198.82,360.89,1198.82,377.22z M1161.06,393.89
				c3.88-3.48,5.82-9,5.82-16.57c0-7.56-2.01-12.75-6.02-15.56c-4.02-2.81-11.04-4.22-21.09-4.22h-23.49v41.57h22.89
				C1149.88,399.11,1157.18,397.37,1161.06,393.89z"/>
		</g>
		<g>
			<path class="st2" d="M1263.78,358.65c-3.01,2.48-4.52,5.76-4.52,9.84c0,4.09,1.84,7.33,5.52,9.74c3.68,2.41,12.18,5.26,25.5,8.53
				c13.32,3.28,23.66,8.2,31.03,14.76c7.36,6.56,11.04,16.13,11.04,28.72c0,12.59-4.72,22.79-14.16,30.62
				c-9.44,7.83-21.86,11.75-37.25,11.75c-22.22,0-42.24-8.23-60.04-24.7l18.68-22.89c15.13,13.25,29.12,19.88,41.97,19.88
				c5.75,0,10.27-1.24,13.55-3.71c3.28-2.48,4.92-5.82,4.92-10.04c0-4.22-1.74-7.56-5.22-10.04c-3.48-2.48-10.38-4.99-20.68-7.53
				c-16.34-3.88-28.28-8.94-35.84-15.16c-7.56-6.23-11.35-16-11.35-29.32c0-13.32,4.79-23.6,14.36-30.83
				c9.57-7.23,21.52-10.84,35.84-10.84c9.37,0,18.74,1.61,28.11,4.82c9.37,3.21,17.54,7.77,24.5,13.66l-15.87,22.89
				c-12.18-9.24-24.77-13.86-37.75-13.86C1270.91,354.93,1266.79,356.17,1263.78,358.65z"/>
		</g>
		<g>
			<path class="st2" d="M1417.3,357.74V471h-31.33V357.74h-39.76v-27.11h110.85v27.11H1417.3z"/>
		</g>
	</g>
	<g>
		<g>
			<g>
				<path class="st2" d="M178.23,330.63c-2.65,11.33-12.72,19.8-24.81,20.02v18.18h16.47c1.58,0,2.87,1.28,2.87,2.87V471h31.55
					V330.63H178.23z"/>
			</g>
		</g>
		<g>
			<g>
				<path class="st1" d="M259.62,420.8c17.8-6.56,26.71-21.09,26.71-43.58c0-16.33-4.65-28.18-13.96-35.54
					c-9.31-7.36-24.87-11.04-46.69-11.04h-21.37v26.91h22.98c10.04,0,17.07,1.41,21.09,4.22c4.02,2.81,6.02,8,6.02,15.56
					c0,7.56-1.94,13.09-5.82,16.57c-3.88,3.48-11.18,5.22-21.89,5.22h-22.37v27.11h21.17L256.6,471h38.56L259.62,420.8z"/>
			</g>
		</g>
	</g>
</g>
<path class="st1" d="M1580.58,239.55H56.42V82.53c0-16.57,13.43-30,30-30h1464.15c16.57,0,30,13.43,30,30V239.55z"/>
<g>
	<path class="st3" d="M201.43,127.29c0,6.78-2.39,12.11-7.16,15.98c-4.77,3.87-11.35,5.81-19.74,5.81h-3.63l-4.6,21.96h-12.88
		l13.05-61.73h14.27c6.81,0,11.96,1.5,15.45,4.5C199.69,116.8,201.43,121.3,201.43,127.29z M173.23,138.36h2.36
		c4,0,7.14-0.97,9.44-2.91c2.29-1.94,3.44-4.55,3.44-7.81c0-5.07-2.74-7.6-8.23-7.6h-3.12L173.23,138.36z"/>
	<path class="st3" d="M248.13,141.65c0,5.94-0.99,11.2-2.98,15.79c-1.98,4.59-4.85,8.14-8.59,10.66c-3.74,2.52-8.19,3.78-13.34,3.78
		c-5.49,0-9.87-1.65-13.15-4.96c-3.28-3.31-4.92-7.71-4.92-13.2c0-6,1.01-11.34,3.02-16.02c2.01-4.69,4.92-8.32,8.72-10.89
		c3.8-2.58,8.25-3.86,13.34-3.86c5.52,0,9.88,1.66,13.09,4.98C246.53,131.25,248.13,135.82,248.13,141.65z M235.34,141.65
		c0-5.55-2.01-8.32-6.04-8.32c-2.11,0-4,0.86-5.68,2.58c-1.67,1.72-3.04,4.24-4.09,7.56c-1.06,3.32-1.58,6.74-1.58,10.26
		c0,5.21,2.11,7.81,6.33,7.81c2.11,0,4.01-0.87,5.7-2.6c1.69-1.73,3-4.14,3.95-7.22C234.87,148.64,235.34,145.28,235.34,141.65z"/>
	<path class="st3" d="M288.08,134.72c-1.75,5.01-3.48,9.5-5.19,13.47l-9.84,22.84h-13.68l-2.15-47.21h11.86l0.17,20.9l-0.17,7.05
		l-0.3,7.22h0.17c0.17-0.56,0.37-1.15,0.59-1.75c0.22-0.6,0.94-2.53,2.15-5.76c1.21-3.24,1.86-4.91,1.94-5.02l9.75-22.63h13.85
		v22.63c0,4-0.14,8.18-0.42,12.54h0.25l1.18-3.38c2.05-5.85,3.39-9.49,4.01-10.89l9.25-20.9h12.96l-22.38,47.21h-13.93l-0.25-21.96
		c0-4.36,0.14-9.15,0.42-14.36H288.08z"/>
	<path class="st3" d="M342.54,171.88c-5.91,0-10.5-1.59-13.77-4.77c-3.27-3.18-4.9-7.67-4.9-13.47c0-5.83,1.16-11.14,3.48-15.94
		c2.32-4.8,5.47-8.46,9.44-10.98c3.97-2.52,8.46-3.78,13.47-3.78c4.98,0,8.87,1.15,11.65,3.44c2.79,2.29,4.18,5.44,4.18,9.44
		c0,5.26-2.35,9.32-7.05,12.18c-4.7,2.86-11.42,4.29-20.14,4.29h-2.15l-0.08,0.89v0.84c0,2.56,0.72,4.58,2.17,6.06
		c1.45,1.48,3.53,2.22,6.23,2.22c2.45,0,4.67-0.27,6.67-0.8c2-0.53,4.42-1.48,7.26-2.83v9.58
		C354.17,170.67,348.68,171.88,342.54,171.88z M349.47,132.11c-2.48,0-4.81,1.13-7.01,3.38c-2.2,2.25-3.63,5-4.31,8.23h1.9
		c4.36,0,7.76-0.68,10.2-2.05c2.43-1.37,3.65-3.22,3.65-5.55C353.9,133.44,352.43,132.11,349.47,132.11z"/>
	<path class="st3" d="M403.81,122.94c1.66,0,3.01,0.16,4.05,0.46l-2.79,12.25c-1.27-0.45-2.67-0.68-4.22-0.68
		c-3.27,0-6.13,1.29-8.59,3.86c-2.46,2.58-4.22,6.27-5.26,11.08l-4.48,21.11h-12.71l10.01-47.21h9.71l-0.89,8.74h0.25
		C393.04,126.15,398.01,122.94,403.81,122.94z"/>
	<path class="st3" d="M427.12,171.88c-5.91,0-10.5-1.59-13.76-4.77c-3.27-3.18-4.9-7.67-4.9-13.47c0-5.83,1.16-11.14,3.48-15.94
		c2.32-4.8,5.47-8.46,9.44-10.98c3.97-2.52,8.46-3.78,13.47-3.78c4.98,0,8.87,1.15,11.65,3.44c2.79,2.29,4.18,5.44,4.18,9.44
		c0,5.26-2.35,9.32-7.05,12.18c-4.7,2.86-11.42,4.29-20.14,4.29h-2.15l-0.08,0.89v0.84c0,2.56,0.72,4.58,2.17,6.06
		c1.45,1.48,3.53,2.22,6.23,2.22c2.45,0,4.67-0.27,6.67-0.8c2-0.53,4.42-1.48,7.26-2.83v9.58
		C438.74,170.67,433.26,171.88,427.12,171.88z M434.04,132.11c-2.48,0-4.81,1.13-7.01,3.38c-2.2,2.25-3.63,5-4.31,8.23h1.9
		c4.36,0,7.76-0.68,10.2-2.05c2.43-1.37,3.65-3.22,3.65-5.55C438.48,133.44,437,132.11,434.04,132.11z"/>
	<path class="st3" d="M469.98,171.88c-4.14,0-7.4-1.51-9.77-4.52c-2.38-3.01-3.57-7.23-3.57-12.67c0-5.52,1.01-10.79,3.02-15.81
		c2.01-5.03,4.67-8.94,7.96-11.74c3.29-2.8,6.92-4.2,10.89-4.2c2.31,0,4.3,0.52,5.97,1.56c1.68,1.04,3.26,2.83,4.75,5.36h0.34
		l0.08-1.18c0.17-3.1,0.52-5.84,1.06-8.23l3.21-15.12h12.71l-13.93,65.7h-9.67l0.59-6.12h-0.17c-2,2.45-4.09,4.22-6.27,5.32
		C474.99,171.33,472.59,171.88,469.98,171.88z M475.3,161.62c1.86,0,3.67-0.96,5.43-2.89c1.76-1.93,3.17-4.5,4.24-7.71
		c1.07-3.21,1.6-6.66,1.6-10.34c0-2.25-0.53-4.05-1.58-5.4c-1.05-1.35-2.5-2.03-4.33-2.03c-1.91,0-3.74,1.01-5.47,3.04
		c-1.73,2.03-3.11,4.7-4.14,8.02c-1.03,3.32-1.54,6.62-1.54,9.88C469.51,159.14,471.44,161.62,475.3,161.62z"/>
	<path class="st3" d="M561.01,122.94c4.11,0,7.35,1.52,9.73,4.56c2.38,3.04,3.57,7.23,3.57,12.58c0,5.35-0.96,10.52-2.87,15.52
		c-1.91,5-4.55,8.96-7.9,11.89c-3.35,2.93-7.05,4.39-11.1,4.39c-5.46,0-9.35-2.29-11.65-6.88h-0.34l-2.45,6.04h-9.75l13.93-65.7
		h12.71l-2.62,12.16c-1.15,5.12-2.34,9.33-3.55,12.62h0.34c2.2-2.76,4.2-4.64,6.02-5.66C556.89,123.45,558.87,122.94,561.01,122.94z
		 M555.9,133.25c-1.91,0-3.74,0.92-5.49,2.74c-1.75,1.83-3.18,4.37-4.31,7.62c-1.13,3.25-1.69,6.78-1.69,10.58
		c0,2.25,0.52,4.05,1.56,5.4c1.04,1.35,2.48,2.03,4.31,2.03c1.89,0,3.69-0.97,5.4-2.91c1.72-1.94,3.1-4.61,4.16-8
		c1.06-3.39,1.58-6.74,1.58-10.03C561.43,135.72,559.59,133.25,555.9,133.25z"/>
	<path class="st3" d="M582.46,123.83h12.46l2.36,21.87c0.39,3.43,0.59,7.56,0.59,12.37h0.25c0.56-1.44,1.18-3.12,1.86-5.05
		c0.68-1.93,1.59-4.09,2.74-6.48l10.98-22.72h13.81l-28.71,53.96c-4.98,9.35-11.78,14.02-20.39,14.02c-2.53,0-4.6-0.27-6.21-0.8
		v-10.13c1.91,0.37,3.55,0.55,4.9,0.55c2.36,0,4.44-0.68,6.23-2.03c1.79-1.35,3.44-3.45,4.96-6.29l1.1-2.07L582.46,123.83z"/>
</g>
</svg>
